<svg width="30" height="30" viewBox="0 0 30 30" fill="none" xmlns="http://www.w3.org/2000/svg">
<circle cx="15" cy="15" r="15" fill="white"/>
<path d="M20.7176 8.44955C20.7176 8.33172 20.6726 8.21871 20.5926 8.13539C20.5127 8.05206 20.4042 8.00525 20.291 8.00525H18.1584C17.0845 7.94953 16.0331 8.33883 15.2339 9.08808C14.4347 9.83734 13.9527 10.8856 13.8931 12.0039V14.4032H11.7605C11.6474 14.4032 11.5389 14.45 11.4589 14.5333C11.3789 14.6166 11.334 14.7296 11.334 14.8475V17.1578C11.334 17.2756 11.3789 17.3886 11.4589 17.472C11.5389 17.5553 11.6474 17.6021 11.7605 17.6021H13.8931V23.5557C13.8931 23.6735 13.9381 23.7865 14.0181 23.8699C14.0981 23.9532 14.2065 24 14.3197 24H16.8788C16.992 24 17.1004 23.9532 17.1804 23.8699C17.2604 23.7865 17.3054 23.6735 17.3054 23.5557V17.6021H19.5404C19.6352 17.6035 19.7278 17.572 19.8035 17.5124C19.8792 17.4529 19.9337 17.3687 19.9584 17.2733L20.5725 14.963C20.5895 14.8973 20.5918 14.8285 20.5792 14.7618C20.5666 14.6951 20.5395 14.6323 20.5 14.5782C20.4604 14.5241 20.4095 14.4802 20.3511 14.4499C20.2927 14.4195 20.2284 14.4035 20.1631 14.4032H17.3054V12.0039C17.3266 11.784 17.4257 11.5802 17.5835 11.4323C17.7412 11.2844 17.9462 11.2031 18.1584 11.2042H20.291C20.4042 11.2042 20.5127 11.1574 20.5926 11.0741C20.6726 10.9907 20.7176 10.8777 20.7176 10.7599V8.44955Z" fill="#1E283C"/>
</svg>
