<svg width="87" height="87" viewBox="0 0 87 87" fill="none" xmlns="http://www.w3.org/2000/svg">
<circle cx="43.5" cy="43.5" r="43.5" fill="white"/>
<g clip-path="url(#clip0_177_976)">
<path d="M32.533 40.3131C33.2316 40.3131 33.8954 40.0429 34.4022 39.5524C34.6928 39.2711 34.7003 38.8074 34.419 38.5168C34.1377 38.2261 33.674 38.2184 33.3833 38.5C33.1513 38.7247 32.8493 38.8483 32.5329 38.8483H32.3032C31.9869 38.8483 31.6849 38.7246 31.4528 38.5C31.162 38.2185 30.6984 38.2261 30.4171 38.5168C30.1358 38.8075 30.1433 39.2712 30.4339 39.5524C30.9407 40.0429 31.6045 40.3131 32.3031 40.3131H32.533Z" fill="#583DCC"/>
<path d="M67.7784 23.1251H44.1766C43.5034 23.1251 42.9559 23.6726 42.9559 24.3458V25.7084C42.9559 26.3815 43.5034 26.9291 44.1766 26.9291H44.4203V42.1498C44.4203 42.8229 44.9679 43.3705 45.641 43.3705H45.9455L43.4115 46.7347C42.834 46.4497 42.1847 46.2887 41.4981 46.2887H41.492C42.4816 40.9413 43.087 35.0459 43.087 32.4421C43.087 29.0029 42.0173 26.3847 39.9076 24.6601C38.081 23.1669 35.5611 22.4097 32.4181 22.4097C29.076 22.4097 26.4465 23.2613 24.6026 24.9406C24.3036 25.213 24.2819 25.6761 24.5543 25.9753C24.8268 26.2744 25.2899 26.296 25.589 26.0236C27.1546 24.5976 29.4522 23.8746 32.4181 23.8746C36.617 23.8746 41.6222 25.361 41.6222 32.442C41.6222 32.8727 41.6048 33.3977 41.5716 33.9964C41.0922 33.4793 40.4077 33.1547 39.6485 33.1547H39.0333V32.6215C39.0333 31.0028 38.0146 29.6007 36.5711 29.0481C36.7118 28.8052 36.8474 28.561 36.9753 28.3164C37.1627 27.958 37.024 27.5154 36.6656 27.328C36.307 27.1405 35.8646 27.2793 35.6771 27.6378C34.6531 29.5962 33.1937 31.4957 31.3315 33.1277C31.3241 33.1342 31.3167 33.1407 31.3093 33.1471C29.806 34.4608 28.0902 35.5584 26.2434 36.3576C25.9753 36.4736 25.8019 36.7377 25.8019 37.0297V37.7192C25.8019 40.0592 27.0869 42.1036 28.9874 43.1876V46.2885H24.8321C23.8288 40.9546 23.2129 35.0229 23.2129 32.4419C23.2129 30.9589 23.4347 29.6479 23.8722 28.545C24.0213 28.1689 23.8374 27.7432 23.4613 27.5941C23.0854 27.4452 22.6597 27.6289 22.5104 28.0048C22.0045 29.2805 21.7479 30.7733 21.7479 32.442C21.7479 35.0445 22.353 40.9397 23.3421 46.2885H23.3371C20.9472 46.2885 19.0011 48.2329 18.999 50.6235V61.9486C18.999 63.9565 20.6325 65.59 22.6403 65.59H23.0166C23.6548 65.59 24.2844 65.4212 24.8373 65.1021L25.7217 64.5915H45.1035C45.508 64.5915 45.8359 64.2636 45.8359 63.859V50.6266C45.8359 49.4479 45.3627 48.3781 44.5971 47.5954L47.7793 43.3705H55.3479V44.4314C54.439 44.738 53.7823 45.598 53.7823 46.609C53.7823 47.8762 54.8132 48.907 56.0804 48.907C57.3475 48.907 58.3783 47.8761 58.3783 46.609C58.3783 45.5979 57.7217 44.738 56.8128 44.4314V43.3705H66.3139C66.987 43.3705 67.5346 42.8229 67.5346 42.1498V26.9291H67.7783C68.4515 26.9291 68.999 26.3815 68.999 25.7084V24.3458C68.9991 23.6727 68.4516 23.1251 67.7784 23.1251ZM40.002 46.2888H35.8477V43.1875C37.5608 42.2101 38.7731 40.4526 38.9955 38.4012H39.6484C40.2469 38.4012 40.7988 38.1994 41.2407 37.8606C40.9606 40.4432 40.5363 43.4503 40.002 46.2888ZM31.6077 47.7537C31.2545 48.6421 30.8025 49.1695 30.3177 49.2327C29.7173 49.3112 28.9301 48.7519 28.1757 47.7537H31.6077ZM36.9522 47.7537C36.1975 48.7515 35.4099 49.3102 34.8105 49.2327C34.3255 49.1695 33.8736 48.6422 33.5204 47.7537H36.9522ZM39.6485 34.6198C40.2872 34.6198 40.8067 35.1393 40.8067 35.778C40.8067 36.4167 40.2872 36.9362 39.6485 36.9362H39.0333V34.6197H39.6485V34.6198ZM27.2666 37.7195V37.5049C29.2574 36.5862 31.1328 35.3306 32.7858 33.7869C32.7881 33.7848 32.7903 33.7828 32.7926 33.7806C33.9438 32.7047 34.9486 31.5233 35.7653 30.3279C36.8033 30.5795 37.5684 31.5195 37.5684 32.6218V37.7185C37.5684 40.3808 35.4024 42.5466 32.7402 42.5466H32.0938C29.432 42.5466 27.2666 40.3811 27.2666 37.7195ZM30.4521 43.7928C30.9759 43.9345 31.5259 44.0115 32.0938 44.0115H32.7402C33.3085 44.0115 33.8588 43.9344 34.3828 43.7926V46.2888H30.4521V43.7928ZM44.3712 50.6266V63.1267H41.3364V59.0403C41.3364 58.6357 41.0085 58.3079 40.604 58.3079C40.1995 58.3079 39.8716 58.6357 39.8716 59.0403V63.1267H28.259L31.4109 61.3069C31.7612 61.1047 31.8813 60.6567 31.679 60.3064C31.4768 59.9561 31.0288 59.8362 30.6785 60.0383L24.105 63.8336C23.7745 64.0244 23.3982 64.1252 23.0167 64.1252H22.6404C21.4403 64.1252 20.464 63.1488 20.464 61.9486V50.6243C20.4653 49.0419 21.7535 47.7544 23.3358 47.7536H26.408C27.565 49.6517 28.9216 50.7046 30.2069 50.7046C31.0342 50.7046 31.8935 50.2752 32.5641 49.1333C33.2142 50.2401 33.9944 50.6035 34.6212 50.6851C36.3266 50.9075 37.817 49.2353 38.7202 47.7536H41.4981C41.8527 47.7536 42.1924 47.8186 42.5063 47.9366L40.0143 51.2451C39.7743 51.0994 39.5125 50.9866 39.2338 50.9119C38.4644 50.7056 37.6606 50.8115 36.9708 51.2098L24.9636 58.1422V55.9853C24.9636 55.5807 24.6356 55.2529 24.2312 55.2529C23.8267 55.2529 23.4987 55.5807 23.4987 55.9853V59.4107C23.4987 59.6724 23.6384 59.9141 23.8649 60.045C24.0915 60.1758 24.3708 60.1758 24.5974 60.045L33.7871 54.7393L35.3045 57.3675L33.689 58.3003C33.3387 58.5025 33.2187 58.9505 33.4209 59.3007C33.6231 59.651 34.0711 59.771 34.4214 59.5688L39.953 56.3751C40.6429 55.9768 41.1363 55.3338 41.3426 54.5643C41.5481 53.7971 41.4435 52.9959 41.048 52.3075L43.7011 48.785C44.119 49.284 44.3712 49.9264 44.3712 50.6266ZM36.5731 56.6352L35.0558 54.007L37.7033 52.4785C38.0544 52.2757 38.4633 52.2219 38.8548 52.3268C39.2463 52.4317 39.5735 52.6829 39.7762 53.0338C39.9788 53.3848 40.0326 53.7937 39.9277 54.1852C39.8229 54.5767 39.5717 54.9039 39.2207 55.1066L36.5731 56.6352ZM56.0805 47.4422C55.621 47.4422 55.2473 47.0685 55.2473 46.6091C55.2473 46.1497 55.621 45.7759 56.0805 45.7759C56.5398 45.7759 56.9136 46.1497 56.9136 46.6091C56.9136 47.0685 56.5398 47.4422 56.0805 47.4422ZM44.4207 24.5899H67.5343V25.4642H44.4207V24.5899ZM66.0698 41.9057H48.8827L50.3019 40.0215C50.5452 39.6984 50.4807 39.2392 50.1575 38.9959C49.8343 38.7524 49.3752 38.817 49.1318 39.1402L47.0488 41.9057H45.8852V26.9291H66.0698V41.9057Z" fill="#583DCC"/>
</g>
<defs>
<clipPath id="clip0_177_976">
<rect width="50" height="50" fill="white" transform="translate(19 19)"/>
</clipPath>
</defs>
</svg>
