<svg width="50" height="50" viewBox="0 0 50 50" fill="none" xmlns="http://www.w3.org/2000/svg">
<path d="M47.5739 5.48212H46.0693V1.70898C46.0693 0.766698 45.3026 0 44.3603 0H42.9249C41.9826 0 41.2159 0.766698 41.2159 1.70898V5.55028C40.5035 5.75624 39.9805 6.41317 39.9805 7.1911V24.3988C39.385 24.6025 38.9551 25.1665 38.9551 25.8301V39.1829C38.9551 39.7907 39.3159 40.3146 39.834 40.5552V42.4031C39.834 42.891 39.9295 43.3667 40.1179 43.817L41.7427 47.6993C41.8916 48.0675 42.3728 48.4663 42.9102 48.4489V49.2676C42.9102 49.6722 43.2381 50 43.6426 50C44.0471 50 44.375 49.6722 44.375 49.2676V48.4489C44.779 48.4631 45.321 48.2064 45.5424 47.6994L47.1673 43.8169C47.3557 43.3668 47.4512 42.8911 47.4512 42.4031V40.5552C47.9693 40.3146 48.3301 39.7907 48.3301 39.1829V25.83C48.3301 25.1664 47.9002 24.6025 47.3047 24.3987V20.7031C47.3047 20.2985 46.9768 19.9707 46.5723 19.9707C46.1678 19.9707 45.8399 20.2985 45.8399 20.7031V24.3164H41.4453V7.1911C41.4453 7.05643 41.5549 6.94696 41.6895 6.94696H45.5957C45.7303 6.94696 45.8399 7.05643 45.8399 7.1911V17.2851C45.8399 17.6897 46.1678 18.0175 46.5723 18.0175C46.9768 18.0175 47.3047 17.6897 47.3047 17.2851C47.2842 16.767 47.3435 7.5119 47.2852 6.94696H47.5739C48.1043 6.94696 48.5358 7.3784 48.5358 7.90877V20.083C48.5358 20.4876 48.8637 20.8154 49.2682 20.8154C49.6727 20.8154 50.0006 20.4876 50.0006 20.083V7.90868C50.0006 6.57069 48.912 5.48212 47.5739 5.48212ZM42.9248 1.46484H44.3602C44.4947 1.46484 44.6043 1.57431 44.6043 1.70898V5.48212H42.6807V1.70898C42.6807 1.57431 42.7902 1.46484 42.9248 1.46484ZM46.8164 25.7812C46.8434 25.7812 46.8653 25.8032 46.8653 25.83V27.4076H45.5288C45.1243 27.4076 44.7964 27.7354 44.7964 28.14C44.7964 28.5446 45.1243 28.8724 45.5288 28.8724H46.8653V30.3284H45.5288C45.1243 30.3284 44.7964 30.6562 44.7964 31.0608C44.7964 31.4654 45.1243 31.7932 45.5288 31.7932H46.8653V33.258H45.5288C45.1243 33.258 44.7964 33.5859 44.7964 33.9905C44.7964 34.3951 45.1243 34.7229 45.5288 34.7229H46.8653V36.1405H45.5288C45.1243 36.1405 44.7964 36.4683 44.7964 36.8729C44.7964 37.2775 45.1243 37.6053 45.5288 37.6053H46.8653V39.1828C46.8653 39.2097 46.8434 39.2317 46.8164 39.2317H40.4688C40.4418 39.2317 40.4199 39.2097 40.4199 39.1828V37.6053H41.7564C42.1608 37.6053 42.4888 37.2775 42.4888 36.8729C42.4888 36.4683 42.1608 36.1405 41.7564 36.1405H40.4199V34.7229H41.7564C42.1608 34.7229 42.4888 34.3951 42.4888 33.9905C42.4888 33.5859 42.1608 33.258 41.7564 33.258H40.4199V31.7932H41.7564C42.1608 31.7932 42.4888 31.4654 42.4888 31.0608C42.4888 30.6562 42.1608 30.3284 41.7564 30.3284H40.4199V28.8724H41.7564C42.1608 28.8724 42.4888 28.5446 42.4888 28.14C42.4888 27.7354 42.1608 27.4076 41.7564 27.4076H40.4199V25.83C40.4199 25.8032 40.4418 25.7812 40.4688 25.7812H46.8164ZM45.9863 42.2851H41.2988V40.6965H45.9863V42.2851ZM44.2538 46.984H43.0313L41.6777 43.7499H45.6073L44.2538 46.984Z" fill="#583DCC"/>
<path d="M42.9102 10.791V20.0684C42.9102 20.473 43.2381 20.8008 43.6426 20.8008C44.0471 20.8008 44.375 20.473 44.375 20.0684V10.791C44.375 10.3864 44.0471 10.0586 43.6426 10.0586C43.2381 10.0586 42.9102 10.3864 42.9102 10.791Z" fill="#583DCC"/>
<path d="M35.0098 0H8.78906C8.38457 0 8.05664 0.327832 8.05664 0.732422C8.05664 1.13701 8.38457 1.46484 8.78906 1.46484H35.0098C35.6829 1.46484 36.2305 2.0124 36.2305 2.68555V47.3145C36.2305 47.9876 35.6829 48.5352 35.0098 48.5352H2.68555C2.0124 48.5352 1.46484 47.9876 1.46484 47.3145V2.68555C1.46484 2.0124 2.0124 1.46484 2.68555 1.46484H5.25557C5.66006 1.46484 5.98799 1.13701 5.98799 0.732422C5.98799 0.327832 5.66006 0 5.25557 0H2.68555C1.20469 0 0 1.20469 0 2.68555V47.3145C0 48.7953 1.20469 50 2.68555 50H35.0098C36.4906 50 37.6953 48.7953 37.6953 47.3145V2.68555C37.6953 1.20469 36.4906 0 35.0098 0Z" fill="#583DCC"/>
<path d="M8.54492 9.5219H21.7771C22.1815 9.5219 22.5095 9.19406 22.5095 8.78946C22.5095 8.38486 22.1815 8.05702 21.7771 8.05702H8.54492C8.41035 8.05702 8.30078 7.94755 8.30078 7.81288V6.09037C8.30078 5.9557 8.41035 5.84623 8.54492 5.84623H29.1497C29.2843 5.84623 29.3939 5.9557 29.3939 6.09037V7.81288C29.3939 7.94755 29.2843 8.05702 29.1497 8.05702H25.195C24.7905 8.05702 24.4626 8.38486 24.4626 8.78946C24.4626 9.19406 24.7905 9.5219 25.195 9.5219H29.1498C30.0921 9.5219 30.8588 8.75518 30.8588 7.81288V6.09037C30.8588 5.14807 30.0921 4.38135 29.1498 4.38135H8.54492C7.60264 4.38135 6.83594 5.14807 6.83594 6.09037V7.81288C6.83594 8.75518 7.60264 9.5219 8.54492 9.5219Z" fill="#583DCC"/>
<path d="M8.78906 14.1113C8.78906 13.169 8.02236 12.4023 7.08008 12.4023H5.12695C4.18467 12.4023 3.41797 13.169 3.41797 14.1113V16.0645C3.41797 17.0067 4.18467 17.7734 5.12695 17.7734H7.08008C8.02236 17.7734 8.78906 17.0067 8.78906 16.0645V14.1113ZM7.32422 16.0645C7.32422 16.1991 7.21465 16.3086 7.08008 16.3086H5.12695C4.99238 16.3086 4.88281 16.1991 4.88281 16.0645V14.1113C4.88281 13.9767 4.99238 13.8672 5.12695 13.8672H7.08008C7.21465 13.8672 7.32422 13.9767 7.32422 14.1113V16.0645Z" fill="#583DCC"/>
<path d="M33.5449 12.4023H14.4043C13.9998 12.4023 13.6719 12.7301 13.6719 13.1347C13.6719 13.5392 13.9998 13.867 14.4043 13.867H33.5449C33.9494 13.867 34.2773 13.5392 34.2773 13.1347C34.2773 12.7301 33.9494 12.4023 33.5449 12.4023Z" fill="#583DCC"/>
<path d="M33.5449 15.8201H23.1445C22.74 15.8201 22.4121 16.148 22.4121 16.5527C22.4121 16.9573 22.74 17.2853 23.1445 17.2853H33.5449C33.9494 17.2853 34.2773 16.9573 34.2773 16.5527C34.2773 16.148 33.9494 15.8201 33.5449 15.8201Z" fill="#583DCC"/>
<path d="M11.4746 17.2853H19.7266C20.1311 17.2853 20.459 16.9573 20.459 16.5527C20.459 16.148 20.1311 15.8201 19.7266 15.8201H11.4746C11.0701 15.8201 10.7422 16.148 10.7422 16.5527C10.7422 16.9573 11.0701 17.2853 11.4746 17.2853Z" fill="#583DCC"/>
<path d="M11.4746 20.7032H28.6621C29.0666 20.7032 29.3945 20.3754 29.3945 19.9707C29.3945 19.5661 29.0666 19.2383 28.6621 19.2383H11.4746C11.0701 19.2383 10.7422 19.5661 10.7422 19.9707C10.7422 20.3754 11.0701 20.7032 11.4746 20.7032Z" fill="#583DCC"/>
<path d="M8.78906 26.5625C8.78906 25.6202 8.02236 24.8535 7.08008 24.8535H5.12695C4.18467 24.8535 3.41797 25.6202 3.41797 26.5625V28.5156C3.41797 29.4579 4.18467 30.2246 5.12695 30.2246H7.08008C8.02236 30.2246 8.78906 29.4579 8.78906 28.5156V26.5625ZM7.32422 28.5156C7.32422 28.6503 7.21465 28.7598 7.08008 28.7598H5.12695C4.99238 28.7598 4.88281 28.6503 4.88281 28.5156V26.5625C4.88281 26.4278 4.99238 26.3184 5.12695 26.3184H7.08008C7.21465 26.3184 7.32422 26.4278 7.32422 26.5625V28.5156Z" fill="#583DCC"/>
<path d="M33.5449 24.8535H14.4043C13.9998 24.8535 13.6719 25.1813 13.6719 25.5859C13.6719 25.9904 13.9998 26.3182 14.4043 26.3182H33.5449C33.9494 26.3182 34.2773 25.9904 34.2773 25.5859C34.2773 25.1813 33.9494 24.8535 33.5449 24.8535Z" fill="#583DCC"/>
<path d="M33.5449 28.2712H11.4746C11.0701 28.2712 10.7422 28.599 10.7422 29.0036C10.7422 29.4081 11.0701 29.7359 11.4746 29.7359H33.5449C33.9494 29.7359 34.2773 29.4081 34.2773 29.0036C34.2773 28.599 33.9494 28.2712 33.5449 28.2712Z" fill="#583DCC"/>
<path d="M11.4746 33.1544H19.6777C20.0822 33.1544 20.4102 32.8265 20.4102 32.4219C20.4102 32.0173 20.0822 31.6895 19.6777 31.6895H11.4746C11.0701 31.6895 10.7422 32.0173 10.7422 32.4219C10.7422 32.8265 11.0701 33.1544 11.4746 33.1544Z" fill="#583DCC"/>
<path d="M7.08008 37.3044H5.12695C4.18467 37.3044 3.41797 38.0712 3.41797 39.0135V40.9667C3.41797 41.9091 4.18467 42.6758 5.12695 42.6758H7.08008C8.02236 42.6758 8.78906 41.9091 8.78906 40.9667V39.0135C8.78906 38.0712 8.02236 37.3044 7.08008 37.3044ZM7.32422 40.9667C7.32422 41.1014 7.21465 41.2109 7.08008 41.2109H5.12695C4.99238 41.2109 4.88281 41.1014 4.88281 40.9667V39.0135C4.88281 38.8788 4.99238 38.7694 5.12695 38.7694H7.08008C7.21465 38.7694 7.32422 38.8788 7.32422 39.0135V40.9667Z" fill="#583DCC"/>
<path d="M33.5449 37.3044H14.4043C13.9998 37.3044 13.6719 37.6323 13.6719 38.0369C13.6719 38.4415 13.9998 38.7694 14.4043 38.7694H33.5449C33.9494 38.7694 34.2773 38.4415 34.2773 38.0369C34.2773 37.6323 33.9494 37.3044 33.5449 37.3044Z" fill="#583DCC"/>
<path d="M33.5449 40.7227H29.1992C28.7947 40.7227 28.4668 41.0505 28.4668 41.455C28.4668 41.8595 28.7947 42.1873 29.1992 42.1873H33.5449C33.9494 42.1873 34.2773 41.8595 34.2773 41.455C34.2773 41.0505 33.9494 40.7227 33.5449 40.7227Z" fill="#583DCC"/>
<path d="M11.4746 42.1873H25.7812C26.1857 42.1873 26.5137 41.8595 26.5137 41.455C26.5137 41.0505 26.1857 40.7227 25.7812 40.7227H11.4746C11.0701 40.7227 10.7422 41.0505 10.7422 41.455C10.7422 41.8595 11.0701 42.1873 11.4746 42.1873Z" fill="#583DCC"/>
<path d="M11.4746 45.6056H26.123C26.5275 45.6056 26.8555 45.2777 26.8555 44.8731C26.8555 44.4685 26.5275 44.1406 26.123 44.1406H11.4746C11.0701 44.1406 10.7422 44.4685 10.7422 44.8731C10.7422 45.2777 11.0701 45.6056 11.4746 45.6056Z" fill="#583DCC"/>
</svg>
