<svg width="30" height="30" viewBox="0 0 30 30" fill="none" xmlns="http://www.w3.org/2000/svg">
<circle cx="15" cy="15" r="15" fill="white"/>
<path d="M16.0037 20.6748H15.9903C15.949 20.6748 11.8137 20.6668 10.7703 20.3835C10.4884 20.3076 10.2314 20.1589 10.025 19.9524C9.81865 19.7459 9.67013 19.4888 9.59434 19.2068C9.40673 18.1484 9.31613 17.0751 9.32368 16.0002C9.31883 14.9235 9.41188 13.8486 9.60168 12.7888C9.6796 12.5064 9.82881 12.2488 10.035 12.0406C10.2411 11.8325 10.4974 11.6808 10.779 11.6002C11.7937 11.3335 15.815 11.3335 15.9857 11.3335H15.9997C16.0417 11.3335 20.1877 11.3415 21.2203 11.6248C21.793 11.7802 22.2403 12.2275 22.395 12.8002C22.5883 13.8628 22.6797 14.9408 22.6663 16.0208C22.671 17.0962 22.5777 18.1697 22.3877 19.2282C22.3109 19.5098 22.1618 19.7665 21.9551 19.9726C21.7485 20.1788 21.4915 20.3274 21.2097 20.4035C20.1963 20.6722 16.1743 20.6748 16.0037 20.6748V20.6748ZM14.6703 14.0035L14.667 18.0035L18.1417 16.0035L14.6703 14.0035Z" fill="#1E283C"/>
</svg>
