<svg width="50" height="50" viewBox="0 0 50 50" fill="none" xmlns="http://www.w3.org/2000/svg">
<g clip-path="url(#clip0_177_978)">
<path d="M13.533 21.3131C14.2316 21.3131 14.8954 21.0429 15.4022 20.5524C15.6928 20.2711 15.7003 19.8074 15.419 19.5168C15.1377 19.2261 14.674 19.2184 14.3833 19.5C14.1513 19.7247 13.8493 19.8483 13.5329 19.8483H13.3032C12.9869 19.8483 12.6849 19.7246 12.4528 19.5C12.162 19.2185 11.6984 19.2261 11.4171 19.5168C11.1358 19.8075 11.1433 20.2712 11.4339 20.5524C11.9407 21.0429 12.6045 21.3131 13.3031 21.3131H13.533Z" fill="#583DCC"/>
<path d="M48.7784 4.12506H25.1766C24.5034 4.12506 23.9559 4.67262 23.9559 5.34576V6.70836C23.9559 7.38151 24.5034 7.92906 25.1766 7.92906H25.4203V23.1498C25.4203 23.8229 25.9679 24.3705 26.641 24.3705H26.9455L24.4115 27.7347C23.834 27.4497 23.1847 27.2887 22.4981 27.2887H22.492C23.4816 21.9413 24.087 16.0459 24.087 13.4421C24.087 10.0029 23.0173 7.38473 20.9076 5.66012C19.081 4.16686 16.5611 3.40973 13.4181 3.40973C10.076 3.40973 7.44648 4.26129 5.60264 5.94059C5.30361 6.21295 5.28193 6.67614 5.5543 6.97526C5.82676 7.27438 6.28994 7.29596 6.58896 7.0236C8.15459 5.59762 10.4522 4.87457 13.4181 4.87457C17.617 4.87457 22.6222 6.361 22.6222 13.442C22.6222 13.8727 22.6048 14.3977 22.5716 14.9964C22.0922 14.4793 21.4077 14.1547 20.6485 14.1547H20.0333V13.6215C20.0333 12.0028 19.0146 10.6007 17.5711 10.0481C17.7118 9.80524 17.8474 9.561 17.9753 9.31637C18.1627 8.95797 18.024 8.51539 17.6656 8.32799C17.307 8.14049 16.8646 8.27926 16.6771 8.63776C15.6531 10.5962 14.1937 12.4957 12.3315 14.1277C12.3241 14.1342 12.3167 14.1407 12.3093 14.1471C10.806 15.4608 9.09023 16.5584 7.24336 17.3576C6.97529 17.4736 6.80186 17.7377 6.80186 18.0297V18.7192C6.80186 21.0592 8.08691 23.1036 9.9874 24.1876V27.2885H5.83213C4.82881 21.9546 4.21289 16.0229 4.21289 13.4419C4.21289 11.9589 4.43467 10.6479 4.87217 9.54498C5.02129 9.16891 4.8374 8.74322 4.46133 8.5941C4.08535 8.44518 3.65967 8.62887 3.51045 9.00485C3.00449 10.2805 2.74795 11.7733 2.74795 13.442C2.74795 16.0445 3.35303 21.9397 4.34209 27.2885H4.33711C1.94717 27.2885 0.00107422 29.2329 -0.000976562 31.6235V42.9486C-0.000976562 44.9565 1.63252 46.59 3.64033 46.59H4.0166C4.65479 46.59 5.28438 46.4212 5.8373 46.1021L6.72168 45.5915H26.1035C26.508 45.5915 26.8359 45.2636 26.8359 44.859V31.6266C26.8359 30.4479 26.3627 29.3781 25.5971 28.5954L28.7793 24.3705H36.3479V25.4314C35.439 25.738 34.7823 26.598 34.7823 27.609C34.7823 28.8762 35.8132 29.907 37.0804 29.907C38.3475 29.907 39.3783 28.8761 39.3783 27.609C39.3783 26.5979 38.7217 25.738 37.8128 25.4314V24.3705H47.3139C47.987 24.3705 48.5346 23.8229 48.5346 23.1498V7.92906H48.7783C49.4515 7.92906 49.999 7.38151 49.999 6.70836V5.34576C49.9991 4.67272 49.4516 4.12506 48.7784 4.12506ZM21.002 27.2888H16.8477V24.1875C18.5608 23.2101 19.7731 21.4526 19.9955 19.4012H20.6484C21.2469 19.4012 21.7988 19.1994 22.2407 18.8606C21.9606 21.4432 21.5363 24.4503 21.002 27.2888ZM12.6077 28.7537C12.2545 29.6421 11.8025 30.1695 11.3177 30.2327C10.7173 30.3112 9.93008 29.7519 9.17568 28.7537H12.6077ZM17.9522 28.7537C17.1975 29.7515 16.4099 30.3102 15.8105 30.2327C15.3255 30.1695 14.8736 29.6422 14.5204 28.7537H17.9522ZM20.6485 15.6198C21.2872 15.6198 21.8067 16.1393 21.8067 16.778C21.8067 17.4167 21.2872 17.9362 20.6485 17.9362H20.0333V15.6197H20.6485V15.6198ZM8.2666 18.7195V18.5049C10.2574 17.5862 12.1328 16.3306 13.7858 14.7869C13.7881 14.7848 13.7903 14.7828 13.7926 14.7806C14.9438 13.7047 15.9486 12.5233 16.7653 11.3279C17.8033 11.5795 18.5684 12.5195 18.5684 13.6218V18.7185C18.5684 21.3808 16.4024 23.5466 13.7402 23.5466H13.0938C10.432 23.5466 8.2666 21.3811 8.2666 18.7195ZM11.4521 24.7928C11.9759 24.9345 12.5259 25.0115 13.0938 25.0115H13.7402C14.3085 25.0115 14.8588 24.9344 15.3828 24.7926V27.2888H11.4521V24.7928ZM25.3712 31.6266V44.1267H22.3364V40.0403C22.3364 39.6357 22.0085 39.3079 21.604 39.3079C21.1995 39.3079 20.8716 39.6357 20.8716 40.0403V44.1267H9.25898L12.4109 42.3069C12.7612 42.1047 12.8813 41.6567 12.679 41.3064C12.4768 40.9561 12.0288 40.8362 11.6785 41.0383L5.10498 44.8336C4.77451 45.0244 4.39824 45.1252 4.0167 45.1252H3.64043C2.44033 45.1252 1.46396 44.1488 1.46396 42.9486V31.6243C1.46533 30.0419 2.75352 28.7544 4.33584 28.7536H7.40801C8.56504 30.6517 9.92158 31.7046 11.2069 31.7046C12.0342 31.7046 12.8935 31.2752 13.5641 30.1333C14.2142 31.2401 14.9944 31.6035 15.6212 31.6851C17.3266 31.9075 18.817 30.2353 19.7202 28.7536H22.4981C22.8527 28.7536 23.1924 28.8186 23.5063 28.9366L21.0143 32.2451C20.7743 32.0994 20.5125 31.9866 20.2338 31.9119C19.4644 31.7056 18.6606 31.8115 17.9708 32.2098L5.96357 39.1422V36.9853C5.96357 36.5807 5.63564 36.2529 5.23115 36.2529C4.82666 36.2529 4.49873 36.5807 4.49873 36.9853V40.4107C4.49873 40.6724 4.63838 40.9141 4.86494 41.045C5.0915 41.1758 5.3708 41.1758 5.59736 41.045L14.7871 35.7393L16.3045 38.3675L14.689 39.3003C14.3387 39.5025 14.2187 39.9505 14.4209 40.3007C14.6231 40.651 15.0711 40.771 15.4214 40.5688L20.953 37.3751C21.6429 36.9768 22.1363 36.3338 22.3426 35.5643C22.5481 34.7971 22.4435 33.9959 22.048 33.3075L24.7011 29.785C25.119 30.284 25.3712 30.9264 25.3712 31.6266ZM17.5731 37.6352L16.0558 35.007L18.7033 33.4785C19.0544 33.2757 19.4633 33.2219 19.8548 33.3268C20.2463 33.4317 20.5735 33.6829 20.7762 34.0338C20.9788 34.3848 21.0326 34.7937 20.9277 35.1852C20.8229 35.5767 20.5717 35.9039 20.2207 36.1066L17.5731 37.6352ZM37.0805 28.4422C36.621 28.4422 36.2473 28.0685 36.2473 27.6091C36.2473 27.1497 36.621 26.7759 37.0805 26.7759C37.5398 26.7759 37.9136 27.1497 37.9136 27.6091C37.9136 28.0685 37.5398 28.4422 37.0805 28.4422ZM25.4207 5.5899H48.5343V6.46422H25.4207V5.5899ZM47.0698 22.9057H29.8827L31.3019 21.0215C31.5452 20.6984 31.4807 20.2392 31.1575 19.9959C30.8343 19.7524 30.3752 19.817 30.1318 20.1402L28.0488 22.9057H26.8852V7.92906H47.0698V22.9057Z" fill="#583DCC"/>
</g>
<defs>
<clipPath id="clip0_177_978">
<rect width="50" height="50" fill="white"/>
</clipPath>
</defs>
</svg>
