<svg width="109" height="43" viewBox="0 0 109 43" fill="none" xmlns="http://www.w3.org/2000/svg">
<g clip-path="url(#clip0_493_59)">
<path d="M1.0791 0H18.3464C21.9226 0 24.8217 2.88776 24.8217 6.45V23.65H7.55435C3.97817 23.65 1.0791 20.7622 1.0791 17.2V0Z" fill="#392994"/>
<path d="M6.47559 19.3498V4.2998H12.5525C14.6502 4.2998 16.2616 4.65721 17.3869 5.37203C18.5123 6.07824 19.075 7.10741 19.075 8.45955C19.075 9.21742 18.8679 9.88488 18.4538 10.4619C18.0487 11.0303 17.4634 11.448 16.6983 11.715C17.5805 11.9303 18.2557 12.3394 18.7238 12.9423C19.192 13.5451 19.4261 14.2427 19.4261 15.0351C19.4261 16.5249 18.8904 17.6187 17.819 18.3163C16.7477 19.0053 15.1903 19.3498 13.1466 19.3498H6.47559ZM10.3918 13.0844V16.3527H13.1466C13.9029 16.3527 14.4881 16.2106 14.9021 15.9265C15.3163 15.6336 15.5233 15.2504 15.5233 14.7766C15.5233 13.6829 14.8347 13.1188 13.4572 13.0844H10.3918ZM10.3918 10.5653H12.7955C14.3711 10.5653 15.1588 10.0399 15.1588 8.9892C15.1588 8.38634 14.9652 7.96003 14.5781 7.71027C14.2 7.45191 13.6193 7.32273 12.836 7.32273H10.3918V10.5653Z" fill="white"/>
<path d="M57.1982 0H74.4656C78.0417 0 80.9408 2.88776 80.9408 6.45V23.65H63.6735C60.0973 23.65 57.1982 20.7622 57.1982 17.2V0Z" fill="#392994"/>
<path d="M71.8212 14.9181C71.8212 14.3971 71.6024 13.9796 71.1649 13.6653C70.7274 13.351 69.9819 13.068 68.9284 12.8166C67.8749 12.5651 66.9864 12.3001 66.2633 12.0218C65.5491 11.7344 64.9597 11.3976 64.4955 11.0114C64.0313 10.6253 63.6874 10.1807 63.4642 9.6778C63.2411 9.16589 63.1295 8.55969 63.1295 7.85919C63.1295 6.51206 63.6874 5.40294 64.8035 4.5318C65.9195 3.66067 67.3571 3.2251 69.1158 3.2251C71.0354 3.2251 72.5845 3.66516 73.763 4.54527C74.9505 5.41641 75.5442 6.61085 75.5442 8.1286H71.6739C71.6739 7.55383 71.4417 7.07336 70.9775 6.68719C70.522 6.30102 69.906 6.10793 69.1292 6.10793C68.4418 6.10793 67.8838 6.26061 67.4553 6.56595C67.0266 6.87129 66.8124 7.25298 66.8124 7.711C66.8124 8.16902 67.0356 8.54173 67.482 8.8291C67.9284 9.10751 68.6695 9.37694 69.7052 9.63738C71.7855 10.0954 73.272 10.7285 74.1648 11.5368C75.0666 12.3451 75.5175 13.4362 75.5175 14.8103C75.5175 16.2113 74.9684 17.3204 73.8702 18.1377C72.772 18.946 71.2721 19.3501 69.3703 19.3501C68.0757 19.3501 66.9062 19.1391 65.8615 18.7169C64.8169 18.2949 64.0089 17.6931 63.4375 16.9118C62.875 16.1305 62.5938 15.2054 62.5938 14.1368H66.4776C66.4776 14.9719 66.732 15.5737 67.2409 15.9419C67.7587 16.3101 68.5311 16.4943 69.5578 16.4943C70.2542 16.4943 70.8033 16.3505 71.2051 16.0632C71.6158 15.7757 71.8212 15.3941 71.8212 14.9181Z" fill="white"/>
<path d="M52.8812 0H35.6139C32.0377 0 29.1387 2.88776 29.1387 6.45V23.65H46.406C49.9822 23.65 52.8812 20.7622 52.8812 17.2V0Z" fill="#392994"/>
<path d="M43.8346 16.4819H38.1466L37.1125 19.3498H33.4551L39.2691 4.2998H42.6995L48.564 19.3498H44.8813L43.8346 16.4819ZM39.1304 13.7431H42.8256L40.9717 8.65333L39.1304 13.7431Z" fill="white"/>
<path d="M109 0H91.7331C88.1569 0 85.2578 2.88776 85.2578 6.45V23.65H102.525C106.101 23.65 109 20.7622 109 17.2V0Z" fill="#392994"/>
<path d="M103.604 4.2998V13.9084C103.604 15.599 103.035 16.9286 101.897 17.897C100.76 18.8655 99.1768 19.3498 97.1484 19.3498C95.1289 19.3498 93.5415 18.8655 92.3862 17.897C91.2309 16.9286 90.6533 15.6032 90.6533 13.9211V4.2998H94.4895V14.0995C94.5425 15.6287 95.4287 16.3933 97.1484 16.3933C98.0038 16.3933 98.652 16.2022 99.0929 15.8198C99.5428 15.4376 99.7677 14.8089 99.7677 13.9338V4.2998H103.604Z" fill="white"/>
<path d="M105.762 27.95H3.23762C1.44953 27.95 0 29.3939 0 31.175V39.775C0 41.5561 1.44953 43 3.23762 43H105.762C107.55 43 109 41.5561 109 39.775V31.175C109 29.3939 107.55 27.95 105.762 27.95Z" fill="#2ABBB2"/>
<path d="M12.855 37.0023C12.7715 37.938 12.4026 38.668 11.7484 39.1922C11.0992 39.7115 10.241 39.9711 9.17371 39.9711C8.013 39.9711 7.09329 39.6037 6.41457 38.8688C5.73584 38.1339 5.39648 37.1125 5.39648 35.8044V35.3047C5.39648 34.4768 5.5514 33.7517 5.86126 33.1296C6.17111 32.5024 6.61622 32.0199 7.19657 31.6819C7.77693 31.3438 8.45073 31.1748 9.21798 31.1748C10.2705 31.1748 11.1164 31.4418 11.7558 31.9758C12.3951 32.5098 12.764 33.252 12.8624 34.2024H11.0697C11.0106 33.6538 10.8262 33.252 10.5164 32.9973C10.2115 32.7376 9.77866 32.6078 9.21798 32.6078C7.86545 32.6078 7.18919 33.5141 7.18919 35.3268V35.8559C7.18919 36.7622 7.35395 37.4383 7.68348 37.8841C8.013 38.3251 8.50975 38.5454 9.17371 38.5454C9.76391 38.5454 10.2115 38.4255 10.5164 38.1854C10.8213 37.9454 11.0058 37.551 11.0697 37.0023H12.855Z" fill="white"/>
<path d="M23.1823 38.428H27.2768V39.8536H21.3896V31.2925H23.1823V38.428Z" fill="white"/>
<path d="M40.8943 38.0238H37.3384L36.6375 39.8536H34.8301L38.3048 31.2925H39.95L43.41 39.8536H41.5951L40.8943 38.0238ZM37.8621 36.6643H40.3705L39.1163 33.4162L37.8621 36.6643Z" fill="white"/>
<path d="M56.3716 37.6048C56.3716 37.2816 56.2437 37.0243 55.9879 36.8333C55.7322 36.6373 55.2281 36.4462 54.4756 36.2601C53.7281 36.0739 53.1378 35.8607 52.705 35.6207C52.2722 35.3806 51.9526 35.1015 51.746 34.7829C51.5443 34.4597 51.4435 34.0726 51.4435 33.6219C51.4435 32.9066 51.746 32.3212 52.3509 31.8656C52.9559 31.4051 53.7379 31.1748 54.6969 31.1748C55.7298 31.1748 56.5585 31.4198 57.183 31.9097C57.8077 32.3996 58.12 33.0365 58.12 33.8203H56.3273C56.3273 33.4235 56.1798 33.1124 55.8846 32.8871C55.5896 32.6568 55.1936 32.5417 54.6969 32.5417C54.2297 32.5417 53.8608 32.6372 53.5903 32.8283C53.3198 33.0145 53.1846 33.2643 53.1846 33.5779C53.1846 33.862 53.3223 34.0971 53.5977 34.2833C53.878 34.4695 54.3699 34.6482 55.0732 34.8197C56.1601 35.0843 56.9397 35.4346 57.4118 35.8706C57.884 36.3066 58.12 36.8724 58.12 37.5682C58.12 38.3176 57.8151 38.9056 57.2053 39.3318C56.5954 39.758 55.7888 39.9711 54.7855 39.9711C54.1068 39.9711 53.4846 39.8584 52.919 39.6331C52.3582 39.4029 51.923 39.0795 51.6131 38.663C51.3033 38.2467 51.1484 37.7617 51.1484 37.208H52.9484C52.9484 38.1487 53.5781 38.619 54.8371 38.619C55.3142 38.619 55.6879 38.5283 55.9585 38.3471C56.2339 38.1659 56.3716 37.9184 56.3716 37.6048Z" fill="white"/>
<path d="M71.5162 37.6048C71.5162 37.2816 71.3883 37.0243 71.1326 36.8333C70.8768 36.6373 70.3727 36.4462 69.6202 36.2601C68.8726 36.0739 68.2824 35.8607 67.8496 35.6207C67.4169 35.3806 67.0971 35.1015 66.8905 34.7829C66.6889 34.4597 66.5881 34.0726 66.5881 33.6219C66.5881 32.9066 66.8905 32.3212 67.4955 31.8656C68.1004 31.4051 68.8824 31.1748 69.8415 31.1748C70.8743 31.1748 71.703 31.4198 72.3277 31.9097C72.9523 32.3996 73.2647 33.0365 73.2647 33.8203H71.4719C71.4719 33.4235 71.3243 33.1124 71.0293 32.8871C70.7342 32.6568 70.3383 32.5417 69.8415 32.5417C69.3743 32.5417 69.0054 32.6372 68.7349 32.8283C68.4644 33.0145 68.3291 33.2643 68.3291 33.5779C68.3291 33.862 68.4668 34.0971 68.7422 34.2833C69.0226 34.4695 69.5144 34.6482 70.2177 34.8197C71.3047 35.0843 72.0842 35.4346 72.5564 35.8706C73.0285 36.3066 73.2647 36.8724 73.2647 37.5682C73.2647 38.3176 72.9597 38.9056 72.3498 39.3318C71.7399 39.758 70.9333 39.9711 69.93 39.9711C69.2513 39.9711 68.6291 39.8584 68.0635 39.6331C67.5029 39.4029 67.0676 39.0795 66.7578 38.663C66.4479 38.2467 66.293 37.7617 66.293 37.208H68.0931C68.0931 38.1487 68.7226 38.619 69.9817 38.619C70.4587 38.619 70.8326 38.5283 71.103 38.3471C71.3785 38.1659 71.5162 37.9184 71.5162 37.6048Z" fill="white"/>
<path d="M87.3478 36.1499H83.6442V38.428H87.9822V39.8536H81.8516V31.2925H87.9601V32.7328H83.6442V34.7169H87.3478V36.1499Z" fill="white"/>
<path d="M101.187 37.6048C101.187 37.2816 101.059 37.0243 100.803 36.8333C100.548 36.6373 100.044 36.4462 99.2911 36.2601C98.5435 36.0739 97.9534 35.8607 97.5205 35.6207C97.0878 35.3806 96.7681 35.1015 96.5615 34.7829C96.3598 34.4597 96.259 34.0726 96.259 33.6219C96.259 32.9066 96.5615 32.3212 97.1664 31.8656C97.7713 31.4051 98.5534 31.1748 99.5124 31.1748C100.545 31.1748 101.374 31.4198 101.999 31.9097C102.623 32.3996 102.936 33.0365 102.936 33.8203H101.143C101.143 33.4235 100.995 33.1124 100.7 32.8871C100.405 32.6568 100.009 32.5417 99.5124 32.5417C99.0452 32.5417 98.6763 32.6372 98.4058 32.8283C98.1353 33.0145 98.0001 33.2643 98.0001 33.5779C98.0001 33.862 98.1378 34.0971 98.4132 34.2833C98.6935 34.4695 99.1854 34.6482 99.8887 34.8197C100.976 35.0843 101.755 35.4346 102.227 35.8706C102.7 36.3066 102.936 36.8724 102.936 37.5682C102.936 38.3176 102.631 38.9056 102.021 39.3318C101.411 39.758 100.604 39.9711 99.601 39.9711C98.9223 39.9711 98.3001 39.8584 97.7345 39.6331C97.1738 39.4029 96.7385 39.0795 96.4287 38.663C96.1188 38.2467 95.9639 37.7617 95.9639 37.208H97.764C97.764 38.1487 98.3935 38.619 99.6526 38.619C100.13 38.619 100.503 38.5283 100.774 38.3471C101.049 38.1659 101.187 37.9184 101.187 37.6048Z" fill="white"/>
</g>
<defs>
<clipPath id="clip0_493_59">
<rect width="109" height="43" fill="white"/>
</clipPath>
</defs>
</svg>
